<?xml version="1.0" encoding="UTF-8" standalone="no"?>
<svg
   width="16"
   height="16"
   version="1.0"
   id="svg10"
   sodipodi:docname="org.fedoraproject.AnacondaInstaller-symbolic.svg"
   inkscape:version="1.2.1 (9c6d41e410, 2022-07-14)"
   xmlns:inkscape="http://www.inkscape.org/namespaces/inkscape"
   xmlns:sodipodi="http://sodipodi.sourceforge.net/DTD/sodipodi-0.dtd"
   xmlns="http://www.w3.org/2000/svg"
   xmlns:svg="http://www.w3.org/2000/svg"
   xmlns:rdf="http://www.w3.org/1999/02/22-rdf-syntax-ns#"
   xmlns:cc="http://creativecommons.org/ns#"
   xmlns:dc="http://purl.org/dc/elements/1.1/">
  <metadata
     id="metadata16">
    <rdf:RDF>
      <cc:Work
         rdf:about="">
        <dc:format>image/svg+xml</dc:format>
        <dc:type
           rdf:resource="http://purl.org/dc/dcmitype/StillImage" />
        <dc:title />
      </cc:Work>
    </rdf:RDF>
  </metadata>
  <defs
     id="defs14" />
  <sodipodi:namedview
     pagecolor="#ffffff"
     bordercolor="#666666"
     borderopacity="1"
     objecttolerance="10"
     gridtolerance="10"
     guidetolerance="10"
     inkscape:pageopacity="0"
     inkscape:pageshadow="2"
     inkscape:window-width="1499"
     inkscape:window-height="1236"
     id="namedview12"
     showgrid="false"
     inkscape:zoom="45.343222"
     inkscape:cx="8.0497147"
     inkscape:cy="6.3184747"
     inkscape:window-x="3957"
     inkscape:window-y="238"
     inkscape:window-maximized="0"
     inkscape:current-layer="svg10"
     inkscape:showpageshadow="2"
     inkscape:pagecheckerboard="0"
     inkscape:deskcolor="#d1d1d1" />
  <g
     transform="matrix(.2 0 0 .2 -25.6 -111.1)"
     stroke-width="5"
     color="#000"
     id="g8">
    <rect
       ry="4"
       rx="4"
       y="625.5"
       x="138"
       height="8"
       width="59.946"
       style="marker:none"
       overflow="visible"
       opacity=".257"
       id="rect4" />
    <rect
       ry="4"
       rx="4"
       y="625.5"
       x="138"
       height="8"
       width="38.125"
       style="marker:none"
       overflow="visible"
       id="rect6" />
  </g>
  <path
     d="m 9.159413,7.1184424 c 0,0.4295295 -0.2258543,0.8063028 -0.5654578,1.017916 -0.1837413,0.114803 -0.4009013,0.1810444 -0.6335023,0.1810444 -0.6621229,0 -1.1989603,-0.5368298 -1.1989603,-1.1989604 0,-0.6621228 0.5368374,-1.1989602 1.1989603,-1.1989602 0.232601,0 0.449761,0.066241 0.6335023,0.1810443 0.3396035,0.2116131 0.5654578,0.5883864 0.5654578,1.0179159 z"
     id="path1719"
     style="stroke-width:0.0149871" />
  <path
     d="m 5.3194412,12.233213 c -0.016503,0.02835 -0.033541,0.05608 -0.051725,0.08333 -0.01933,0.02949 -0.039576,0.05845 -0.060817,0.08677 0.018107,-0.03133 0.037361,-0.06189 0.057379,-0.09187 0.017725,-0.02667 0.036138,-0.0528 0.055162,-0.07824 z"
     id="path1721"
     style="stroke-width:0.0149871" />
  <path
     d="m 5.3194412,12.233213 c -0.016503,0.02835 -0.033541,0.05608 -0.051725,0.08333 -0.00153,-0.0015 -0.00229,-0.0038 -0.00382,-0.0053 0.017725,-0.02667 0.036138,-0.05272 0.055163,-0.07823 z"
     id="path1723"
     style="stroke-width:0.0149871" />
  <path
     d="m 5.3194412,12.233213 c -0.016503,0.02835 -0.033541,0.05608 -0.051725,0.08333 -0.01933,0.02949 -0.039576,0.05845 -0.060817,0.08677 0.018107,-0.03133 0.037361,-0.06189 0.057379,-0.09187 0.017725,-0.02667 0.036138,-0.0528 0.055162,-0.07824 z"
     id="path1725"
     style="stroke-width:0.0149871" />
  <path
     d="m 13.955262,7.1184424 v 4.1963686 c 0,0.0022 0,0.0053 -1.45e-4,0.0076 -0.0038,0.989738 -0.807655,1.790945 -1.798296,1.790945 h -0.233349 c -0.883035,-0.114499 -1.565098,-0.869398 -1.565098,-1.78346 V 7.6324965 L 12.156821,7.1185876 10.29933,6.5879006 C 10.057888,5.5188712 9.1024628,4.7206671 7.9604529,4.7206671 c -1.3244063,0 -2.3979206,1.0735143 -2.3979206,2.3979205 v 1.1989603 c 0,0.6621305 0.5368298,1.1989598 1.1989603,1.1989598 0.9931919,0 1.7984404,0.8052563 1.7984404,1.7984493 v 1.993275 c 0,-0.368682 -0.1109065,-0.71144 -0.3012413,-0.996638 -0.3223668,-0.483332 -0.8725442,-0.80181 -1.4971991,-0.80181 -0.5901896,0 -1.1141378,0.284303 -1.4420514,0.723574 -0.019024,0.02544 -0.037437,0.05157 -0.055162,0.07824 -0.020094,0.02995 -0.039271,0.06051 -0.057379,0.09187 -0.2836993,0.380967 -0.7150242,0.645795 -1.2094504,0.709935 H 3.7640996 c -0.9906401,0 -1.7943911,-0.801206 -1.7982876,-1.790944 -1.528e-4,-0.0022 -1.528e-4,-0.0053 -1.528e-4,-0.0076 V 2.9220738 C 1.9656439,1.9288895 2.7709,1.1236334 3.7640843,1.1236334 c 0.5725099,0 1.0826674,0.2675172 1.4119334,0.6844555 0.8319283,-0.4371698 1.7792556,-0.6844555 2.7844352,-0.6844555 3.3107831,0 5.9948091,2.6840266 5.9948091,5.994809 z"
     id="path1727"
     style="stroke-width:0.0149871" />
  <line
     fill="none"
     x1="8.5599356"
     y1="13.3481"
     x2="8.5599356"
     y2="13.308078"
     id="line1729"
     style="stroke-width:0.0149871" />
</svg>
