<svg xmlns="http://www.w3.org/2000/svg" xmlns:xlink="http://www.w3.org/1999/xlink" xml:space="preserve" width="128" height="128"><defs><linearGradient id="a"><stop offset="0" style="stop-color:#8ff0a4;stop-opacity:.48627451"/><stop offset="1" style="stop-color:#8ff0a4;stop-opacity:0"/></linearGradient><linearGradient xlink:href="#a" id="h" x1="62" x2="62" y1="164" y2="128" gradientTransform="translate(1 -82)" gradientUnits="userSpaceOnUse"/></defs><linearGradient id="b" gradientUnits="userSpaceOnUse"><stop offset="0" stop-color="#b5835a"/><stop offset="1" stop-color="#63452c"/></linearGradient><linearGradient xlink:href="#b" id="c" x1="20" x2="32" y1="110.5" y2="110.5"/><linearGradient xlink:href="#b" id="e" x1="96" x2="108" y1="110.5" y2="110.5"/><linearGradient id="f" x1="-116" x2="-12" y1="-246" y2="-246" gradientTransform="rotate(180 0 -86)" gradientUnits="userSpaceOnUse"><stop offset="0" stop-color="#865e3c"/><stop offset=".058" stop-color="#b5835a"/><stop offset=".115" stop-color="#865e3c"/><stop offset=".885" stop-color="#865e3c"/><stop offset=".942" stop-color="#b5835a"/><stop offset="1" stop-color="#865e3c"/></linearGradient><linearGradient id="g" x1="84" x2="46" y1="230" y2="178" gradientTransform="matrix(.75 0 0 .70833 15 -73.5)" gradientUnits="userSpaceOnUse"><stop offset="0" stop-color="#1a5fb4"/><stop offset="1" stop-color="#8ff0a4"/></linearGradient><radialGradient id="i" cx="77.852" cy="217.993" r="24" gradientTransform="matrix(1.53472 .00522 -.00482 1.41666 -40.099 -231.728)" gradientUnits="userSpaceOnUse"><stop offset="0" stop-color="#f0d7ff"/><stop offset=".276" stop-color="#dc8add"/><stop offset="1" stop-color="#1a5fb4"/></radialGradient><radialGradient id="j" cx="36" cy="208.727" r="24" gradientTransform="matrix(1.45833 0 0 1.25 -11.835 -187.575)" gradientUnits="userSpaceOnUse"><stop offset="0" stop-color="#f8e45c"/><stop offset="1" stop-color="#f8e45c" stop-opacity="0"/></radialGradient><path fill="url(#c)" d="M26 98c3.313 0 6 2.688 6 6v13a6.001 6.001 0 0 1-12 0v-13c0-3.312 2.688-6 6-6m0 0"/><path fill="url(#e)" d="M102 98c3.313 0 6 2.688 6 6v13a6.001 6.001 0 0 1-12 0v-13c0-3.312 2.688-6 6-6m0 0"/><path fill="url(#f)" d="M104 116H24c-6.629 0-12-5.371-12-12V44c0-6.629 5.371-12 12-12h80c6.629 0 12 5.371 12 12v60c0 6.629-5.371 12-12 12m0 0"/><path fill="#b5835a" d="M104 104H24c-6.629 0-12-5.371-12-12V44c0-6.629 5.371-12 12-12h80c6.629 0 12 5.371 12 12v48c0 6.629-5.371 12-12 12m0 0"/><path fill="#63452c" d="M20 40h88v32H20zm0 0"/><path fill="#865e3c" d="M20 32h-8v32h8zm96 0h-8v32h8zM20 72h88v8H20zm0 0"/><path fill="#986a44" d="M104 96H24c-2.21 0-4-1.79-4-4v-8c0-2.21 1.79-4 4-4h80c2.21 0 4 1.79 4 4v8c0 2.21-1.79 4-4 4m0 0"/><path fill="#986a44" d="M20 88h88v-8H20zm0 0"/><path fill="url(#g)" d="M51 54h24c3.313 0 6 2.688 6 6v22a6 6 0 0 1-6 6H51c-3.312 0-6-2.687-6-6V60c0-3.312 2.688-6 6-6m0 0"/><path d="M51 54c-3.312 0-6 2.688-6 6v8c0 3.313 2.688 6 6 6h24a6 6 0 0 0 6-6v-8c0-3.312-2.687-6-6-6z" style="mix-blend-mode:overlay;fill:url(#h);stroke-width:1.13386;stroke-linejoin:round"/><path fill="url(#i)" d="M84 69c9.387 0 17 7.613 17 17s-7.613 17-17 17-17-7.613-17-17 7.613-17 17-17m0 0"/><path fill="#e01b24" d="M63.195 103.04a6.03 6.03 0 0 0-.015-6.02L49.195 72.984c-2.324-3.98-8.07-3.98-10.386 0L24.816 97.02c-2.332 4.003.563 9.035 5.196 9.035h27.976a6 6 0 0 0 5.207-3.016m0 0"/><path fill="url(#j)" d="M63.195 103.04a6.03 6.03 0 0 0-.015-6.02L49.195 72.984c-2.324-3.98-8.07-3.98-10.386 0L24.816 97.02c-2.332 4.003.563 9.035 5.196 9.035h27.976a6 6 0 0 0 5.207-3.016m0 0"/><path fill="#865e3c" d="M24 108h80v-8H24zm0 0"/><path fill="#b5835a" d="M24 104h80v-8H24zm0 0"/><path fill="#deddda" d="M88 42c6.629 0 12 5.371 12 12s-5.371 12-12 12-12-5.371-12-12 5.371-12 12-12m0 0"/><path fill="#ed333b" d="M64 42c6.629 0 12 5.371 12 12s-5.371 12-12 12-12-5.371-12-12 5.371-12 12-12m-48 0c6.629 0 12 5.371 12 12s-5.371 12-12 12S4 60.629 4 54s5.371-12 12-12m0 0"/><path fill="#deddda" d="M40 42c6.629 0 12 5.371 12 12s-5.371 12-12 12-12-5.371-12-12 5.371-12 12-12m0 0"/><path fill="#ed333b" d="M112 42c6.629 0 12 5.371 12 12s-5.371 12-12 12-12-5.371-12-12 5.371-12 12-12m0 0"/><path fill="#f66151" d="M10 12c-3.324 0-6 2.676-6 6v36h120V18c0-3.324-2.676-6-6-6zm0 0"/><path fill="#f6f5f4" d="M28 12v42h24V12zm48 0v42h24V12zm0 0"/></svg>