/* XPM */
static char * linux_fedora_logo_xpm[] = {
"85 20 2 1",
" 	c None",
".	c #FFFFFF",
"                                                                                     ",
"                                                                                     ",
"                                   .                                                 ",
"                                  ...                                                ",
"                                  ...                                                ",
"                                  ...                                                ",
"            .......       .....   ........       ....    .......   .....             ",
"           ..........   ........  .........    ........  ....... ........            ",
"           ..........   ......... ..........  .......... .................           ",
"           .....  .... ....   ... ....   .... ...   .... ...    ....   ...           ",
"           ....    ... ...    .......     .......    ... ...    ...    ....          ",
"           .... ..  ......     ......     .......    .......    ...    ....          ",
"           ....    ... ...    .......     ... ...    .......    ...    ....          ",
"           .....   ... ....  ....  ...   .... ....  ........    ....  .....          ",
"           ......  ...  .........  .........  ..............     ..........          ",
"           .... .  ...   .......    .......    ......... ...      .........          ",
"            ..      .     ....        ...        .... ..  .        .... ..           ",
"                                                                                     ",
"                                                                                     ",
"                                                                                     "};
