/* XPM */
static char * linux_fedora_classic_xpm[] = {
"60 20 2 1",
" 	c None",
".	c #FFFFFF",
"                                                            ",
"                                                            ",
"                      ..                                    ",
"                      ...                                   ",
"                      ...                                   ",
"                      ...                                   ",
"........     ......   ........     .....   .......  .....   ",
".........   ........  .........   .......  ....... .......  ",
"..........  ......... .........  ......... ...... .... .... ",
"....   ... ...    ... ...    .......   ... ...   ....   ... ",
"...  .  ......    .......    ......     ......   ...     ...",
"...  .  ......    .......    ......     ......   ...     ...",
"....    .......   ... ...   .... ...   .......    ...   ....",
"......  ... ......... .........  .............    ..........",
"......  ...  .......   .......    ............     .........",
" ..     ..    ....       ....      .... .. ..       .... .. ",
"                                                            ",
"                                                            ",
"                                                            ",
"                                                            "};
