<?xml version="1.0" encoding="UTF-8" standalone="no"?>
<!-- Uploaded to: SVG Repo, www.svgrepo.com, Generator: SVG Repo Mixer Tools -->

<svg
   fill="#000000"
   height="800px"
   width="800px"
   version="1.1"
   id="Layer_1"
   viewBox="0 0 297 297"
   xml:space="preserve"
   sodipodi:docname="app-menu-icon.svg"
   inkscape:version="1.3 (0e150ed6c4, 2023-07-21)"
   xmlns:inkscape="http://www.inkscape.org/namespaces/inkscape"
   xmlns:sodipodi="http://sodipodi.sourceforge.net/DTD/sodipodi-0.dtd"
   xmlns="http://www.w3.org/2000/svg"
   xmlns:svg="http://www.w3.org/2000/svg"><sodipodi:namedview
   id="namedview11"
   pagecolor="#ffffff"
   bordercolor="#000000"
   borderopacity="0.25"
   inkscape:showpageshadow="2"
   inkscape:pageopacity="0.0"
   inkscape:pagecheckerboard="0"
   inkscape:deskcolor="#d1d1d1"
   inkscape:zoom="1.0275"
   inkscape:cx="401.94647"
   inkscape:cy="401.94647"
   inkscape:window-width="1920"
   inkscape:window-height="1012"
   inkscape:window-x="0"
   inkscape:window-y="0"
   inkscape:window-maximized="1"
   inkscape:current-layer="Layer_1" /><defs
   id="defs11" />&#10;<g
   id="g11"
   style="fill:#ffffff"
   transform="matrix(0.625,0,0,0.625,55.6875,55.6875)">&#10;	<g
   id="g10"
   style="fill:#ffffff">&#10;		<g
   id="g9"
   style="fill:#ffffff">&#10;			&#10;			<path
   d="m 173.649,0 h -50.298 c -8.715,0 -15.804,7.089 -15.804,15.804 v 50.298 c 0,8.715 7.089,15.804 15.804,15.804 h 50.298 c 8.715,0 15.804,-7.089 15.804,-15.804 V 15.804 C 189.453,7.089 182.364,0 173.649,0 Z"
   id="path2"
   style="fill:#ffffff" />&#10;			<path
   d="M 66.102,107.547 H 15.804 C 7.089,107.547 0,114.636 0,123.351 v 50.298 c 0,8.715 7.089,15.804 15.804,15.804 h 50.298 c 8.715,0 15.804,-7.089 15.804,-15.804 v -50.298 c 10e-4,-8.715 -7.089,-15.804 -15.804,-15.804 z"
   id="path3"
   style="fill:#ffffff" /><path
   d="M 66.102,0 H 15.804 C 7.089,0 0,7.089 0,15.804 v 50.298 c 0,8.715 7.089,15.804 15.804,15.804 h 50.298 c 8.715,0 15.804,-7.089 15.804,-15.804 V 15.804 C 81.907,7.089 74.817,0 66.102,0 Z"
   id="path1"
   style="fill:#ffffff" />&#10;			<path
   d="m 173.649,107.547 h -50.298 c -8.715,0 -15.804,7.089 -15.804,15.804 v 50.298 c 0,8.715 7.089,15.804 15.804,15.804 h 50.298 c 8.715,0 15.804,-7.089 15.804,-15.804 v -50.298 c 0,-8.715 -7.089,-15.804 -15.804,-15.804 z"
   id="path4"
   style="fill:#ffffff" />&#10;			<path
   d="m 281.196,0 h -50.298 c -8.715,0 -15.804,7.089 -15.804,15.804 v 50.298 c 0,8.715 7.089,15.804 15.804,15.804 h 50.298 C 289.911,81.906 297,74.817 297,66.102 V 15.804 C 297,7.089 289.911,0 281.196,0 Z"
   id="path5"
   style="fill:#ffffff" />&#10;			<path
   d="m 281.196,107.547 h -50.298 c -8.715,0 -15.804,7.089 -15.804,15.804 v 50.298 c 0,8.715 7.089,15.804 15.804,15.804 h 50.298 c 8.715,0 15.804,-7.089 15.804,-15.804 v -50.298 c 0,-8.715 -7.089,-15.804 -15.804,-15.804 z"
   id="path6"
   style="fill:#ffffff" />&#10;			<path
   d="M 66.102,215.093 H 15.804 C 7.089,215.093 0,222.183 0,230.898 v 50.298 C 0,289.911 7.089,297 15.804,297 h 50.298 c 8.715,0 15.804,-7.089 15.804,-15.804 v -50.298 c 10e-4,-8.715 -7.089,-15.805 -15.804,-15.805 z"
   id="path7"
   style="fill:#ffffff" />&#10;			<path
   d="m 173.649,215.093 h -50.298 c -8.715,0 -15.804,7.089 -15.804,15.804 v 50.298 c 0,8.715 7.089,15.804 15.804,15.804 h 50.298 c 8.715,0 15.804,-7.089 15.804,-15.804 v -50.298 c 0,-8.714 -7.089,-15.804 -15.804,-15.804 z"
   id="path8"
   style="fill:#ffffff" />&#10;			<path
   d="m 281.196,215.093 h -50.298 c -8.715,0 -15.804,7.089 -15.804,15.804 v 50.298 c 0,8.715 7.089,15.804 15.804,15.804 h 50.298 c 8.715,0 15.804,-7.089 15.804,-15.804 v -50.298 c 0,-8.714 -7.089,-15.804 -15.804,-15.804 z"
   id="path9"
   style="fill:#ffffff" />&#10;		</g>&#10;	</g>&#10;</g>&#10;</svg>
