<?xml version="1.0" encoding="UTF-8" standalone="no"?>
<svg
   width="128"
   height="128"
   version="1.0"
   id="svg38"
   sodipodi:docname="org.fedoraproject.AnacondaInstaller.svg"
   inkscape:version="1.2.1 (9c6d41e410, 2022-07-14)"
   xmlns:inkscape="http://www.inkscape.org/namespaces/inkscape"
   xmlns:sodipodi="http://sodipodi.sourceforge.net/DTD/sodipodi-0.dtd"
   xmlns:xlink="http://www.w3.org/1999/xlink"
   xmlns="http://www.w3.org/2000/svg"
   xmlns:svg="http://www.w3.org/2000/svg"
   xmlns:rdf="http://www.w3.org/1999/02/22-rdf-syntax-ns#"
   xmlns:cc="http://creativecommons.org/ns#"
   xmlns:dc="http://purl.org/dc/elements/1.1/">
  <metadata
     id="metadata42">
    <rdf:RDF>
      <cc:Work
         rdf:about="">
        <dc:format>image/svg+xml</dc:format>
        <dc:type
           rdf:resource="http://purl.org/dc/dcmitype/StillImage" />
      </cc:Work>
    </rdf:RDF>
  </metadata>
  <sodipodi:namedview
     pagecolor="#ffffff"
     bordercolor="#666666"
     borderopacity="1"
     objecttolerance="10"
     gridtolerance="10"
     guidetolerance="10"
     inkscape:pageopacity="0"
     inkscape:pageshadow="2"
     inkscape:window-width="5120"
     inkscape:window-height="1403"
     id="namedview40"
     showgrid="false"
     inkscape:zoom="4.0078125"
     inkscape:cx="-1.122807"
     inkscape:cy="30.939571"
     inkscape:window-x="3840"
     inkscape:window-y="0"
     inkscape:window-maximized="1"
     inkscape:current-layer="g36"
     inkscape:showpageshadow="2"
     inkscape:pagecheckerboard="0"
     inkscape:deskcolor="#d1d1d1" />
  <defs
     id="defs16">
    <linearGradient
       xlink:href="#a"
       id="b"
       gradientUnits="userSpaceOnUse"
       gradientTransform="matrix(.23214 0 0 .32895 -8.567 435.827)"
       x1="88.596"
       y1="-449.394"
       x2="536.596"
       y2="-449.394" />
    <linearGradient
       id="a">
      <stop
         offset="0"
         stop-color="#acabae"
         id="stop3" />
      <stop
         offset=".038"
         stop-color="#f7f7f7"
         id="stop5" />
      <stop
         offset=".077"
         stop-color="#deddda"
         id="stop7" />
      <stop
         offset=".923"
         stop-color="#b0afad"
         id="stop9" />
      <stop
         offset=".962"
         stop-color="#c0bfbc"
         id="stop11" />
      <stop
         offset="1"
         stop-color="#77767b"
         id="stop13" />
    </linearGradient>
  </defs>
  <g
     transform="translate(0 -172)"
     id="g36">
    <rect
       ry="8"
       rx="8"
       y="188"
       x="12"
       height="100"
       width="104"
       style="marker:none"
       fill="url(#b)"
       id="rect18" />
    <rect
       style="marker:none"
       width="104"
       height="100"
       x="12"
       y="184"
       rx="8"
       ry="8"
       fill="#fff"
       id="rect20" />
    <g
       transform="translate(-104 -365.5)"
       color="#000"
       id="g26">
      <rect
         ry="4"
         rx="4"
         y="625.5"
         x="128"
         height="8"
         width="80"
         style="marker:none"
         overflow="visible"
         fill="#e1dedb"
         id="rect22" />
      <rect
         ry="4"
         rx="4"
         y="625.5"
         x="128"
         height="8"
         width="48.125"
         style="marker:none"
         overflow="visible"
         fill="#3584e4"
         id="rect24" />
    </g>
    <path
       id="path28-3"
       style="fill:#51a2da;fill-opacity:1;fill-rule:nonzero;stroke:none;stroke-width:1.33333"
       d="m 66.014671,196.23794 c -14.365117,0 -26.011016,11.62447 -26.021999,25.96865 v 20.11046 c 0.0082,3.25574 2.652334,5.8937 5.915778,5.8937 0.0082,0 0.02052,-10e-4 0.02804,-10e-4 v 10e-4 h 20.087106 c 14.366745,-0.007 26.012774,-11.63744 26.012774,-25.98606 0,-14.35183 -11.650386,-25.9864 -26.022006,-25.9864 z m 5.275064,10.6922 v 3.4e-4 c 4.369999,0 8.496792,3.34624 8.496792,7.95494 0,0.42751 -0.0047,0.8525 -0.07317,1.33882 -0.120909,1.22573 -1.241989,2.10418 -2.463346,1.93106 -1.222568,-0.17483 -2.052763,-1.33097 -1.825587,-2.54249 0.01915,-0.13659 0.02804,-0.35444 0.02804,-0.72739 0,-2.61256 -2.137221,-3.62248 -4.163032,-3.62248 -2.0246,0 -3.849591,1.69572 -3.856512,3.61756 v 6.65272 l 3.756318,-0.0273 c 2.932449,-0.0615 2.962458,4.35322 0.03009,4.33246 l -3.786313,0.0205 -0.02736,6.20615 c -0.453135,4.87095 -4.60584,8.76667 -9.594656,8.76667 -5.287627,0 -9.649693,-4.31969 -9.649693,-9.6131 0.159206,-5.44543 4.516478,-9.72735 9.99016,-9.67606 l 3.049022,-0.0205 v 4.3259 l -3.074401,0.0273 c -3.008995,0.0888 -5.58174,2.12645 -5.63102,5.34395 0,2.93333 2.374135,5.2807 5.317581,5.2807 2.940601,0 5.288249,-2.13621 5.288249,-5.27442 v -16.36375 c 0.0014,-0.30322 0.01573,-0.54634 0.05061,-0.88132 0.494235,-4.00376 4.078997,-7.05483 8.137539,-7.05483 z" />
    <rect
       style="fill:#ffffff"
       id="rect177"
       width="67.493179"
       height="57.387913"
       x="28.444445"
       y="195.57895" />
    <path
       d="m 68.211805,224.26633 c 0,2.14803 -1.129481,4.03224 -2.827798,5.09051 -0.918875,0.5741 -2.004868,0.90537 -3.168083,0.90537 -3.311213,0 -5.995888,-2.68463 -5.995888,-5.99588 0,-3.31121 2.684675,-5.99589 5.995888,-5.99589 1.163215,0 2.249208,0.33128 3.168083,0.9054 1.698317,1.05825 2.827798,2.94245 2.827798,5.09049 z"
       id="path1719"
       style="stroke-width:0.0749486" />
    <path
       d="m 47.619075,249.05271 c -0.102353,0.17579 -0.208018,0.34779 -0.320792,0.51681 -0.119887,0.18291 -0.245454,0.3625 -0.377185,0.53816 0.112305,-0.19429 0.231714,-0.38383 0.355858,-0.56977 0.109935,-0.16536 0.224133,-0.32742 0.342119,-0.4852 z"
       id="path1721"
       style="stroke-width:0.0929483" />
    <path
       d="m 47.619075,249.05271 c -0.102353,0.17579 -0.208018,0.34779 -0.320792,0.51681 -0.0095,-0.01 -0.01423,-0.0237 -0.0237,-0.0332 0.109935,-0.16537 0.224133,-0.32695 0.34212,-0.48517 z"
       id="path1723"
       style="stroke-width:0.0929483" />
    <path
       d="m 47.619075,249.05271 c -0.102353,0.17579 -0.208018,0.34779 -0.320792,0.51681 -0.119887,0.18291 -0.245454,0.3625 -0.377185,0.53816 0.112305,-0.19429 0.231714,-0.38383 0.355858,-0.56977 0.109935,-0.16536 0.224133,-0.32742 0.342119,-0.4852 z"
       id="path1725"
       style="stroke-width:0.0929483" />
    <path
       d="m 92.195386,224.26633 v 20.98563 c 0,0.0115 0,0.0267 -7.83e-4,0.0382 -0.01909,4.94959 -4.03901,8.95634 -8.993102,8.95634 h -1.166959 c -4.41597,-0.57257 -7.826903,-4.34776 -7.826903,-8.91888 v -18.49057 l 8.993862,-2.57 -9.289141,-2.65391 c -1.20742,-5.34612 -5.985411,-9.33786 -11.69649,-9.33786 -6.62323,0 -11.991772,5.36854 -11.991772,11.99177 v 5.99589 c 0,3.31125 2.684634,5.99589 5.995883,5.99589 4.966855,0 8.993824,4.027 8.993824,8.99385 v 9.96819 c 0,-1.84375 -0.554628,-3.55786 -1.506473,-4.9841 -1.612131,-2.41709 -4.363511,-4.00978 -7.487351,-4.00978 -2.951482,0 -5.571693,1.42178 -7.211558,3.61853 -0.09514,0.12723 -0.187222,0.25791 -0.275867,0.39125 -0.100487,0.14979 -0.196389,0.30262 -0.286945,0.45942 -1.418753,1.90518 -3.575768,3.22957 -6.048344,3.55032 h -1.166959 c -4.954094,0 -8.973575,-4.00675 -8.993062,-8.95634 -9.31e-4,-0.0115 -9.31e-4,-0.0267 -9.31e-4,-0.0382 V 203.2807 c -7.7e-5,-4.96681 4.026929,-8.99382 8.993751,-8.99382 2.863064,0 5.414312,1.33783 7.060941,3.4229 4.160779,-2.18624 8.898268,-3.4229 13.925078,-3.4229 16.556899,0 29.979459,13.42255 29.979459,29.97946 z"
       id="path1727"
       style="stroke-width:0.0749486" />
    <line
       fill="none"
       x1="67.716385"
       y1="255.96715"
       x2="67.716385"
       y2="255.71895"
       id="line1729"
       style="stroke-width:0.0929483" />
  </g>
</svg>
