<?xml version="1.0" encoding="UTF-8" standalone="no"?>
<svg
   width="48"
   height="48"
   id="svg2942"
   sodipodi:version="0.32"
   inkscape:version="1.2.1 (9c6d41e410, 2022-07-14)"
   version="1.0"
   sodipodi:docname="xfce4_xicon1.svg"
   inkscape:output_extension="org.inkscape.output.svg.inkscape"
   xmlns:inkscape="http://www.inkscape.org/namespaces/inkscape"
   xmlns:sodipodi="http://sodipodi.sourceforge.net/DTD/sodipodi-0.dtd"
   xmlns="http://www.w3.org/2000/svg"
   xmlns:svg="http://www.w3.org/2000/svg"
   xmlns:rdf="http://www.w3.org/1999/02/22-rdf-syntax-ns#"
   xmlns:cc="http://creativecommons.org/ns#"
   xmlns:dc="http://purl.org/dc/elements/1.1/">
  <defs
     id="defs2944">
    <filter
       style="color-interpolation-filters:sRGB;"
       inkscape:label="Invert"
       id="filter2737"
       y="0"
       height="1">
      <feColorMatrix
         type="hueRotate"
         values="180"
         result="color1"
         id="feColorMatrix2733" />
      <feColorMatrix
         values="-1 0 0 0 1 0 -1 0 0 1 0 0 -1 0 1 -0.21 -0.72 -0.07 2 0 "
         result="color2"
         id="feColorMatrix2735" />
    </filter>
    <filter
       style="color-interpolation-filters:sRGB;"
       inkscape:label="Invert"
       id="filter2743"
       x="0"
       y="0"
       width="1"
       height="1">
      <feColorMatrix
         type="hueRotate"
         values="180"
         result="color1"
         id="feColorMatrix2739" />
      <feColorMatrix
         values="-1 0 0 0 1 0 -1 0 0 1 0 0 -1 0 1 -0.21 -0.72 -0.07 2 0 "
         result="color2"
         id="feColorMatrix2741" />
    </filter>
    <filter
       style="color-interpolation-filters:sRGB;"
       inkscape:label="Invert"
       id="filter2749"
       x="0"
       y="0"
       width="1"
       height="1">
      <feColorMatrix
         type="hueRotate"
         values="180"
         result="color1"
         id="feColorMatrix2745" />
      <feColorMatrix
         values="-1 0 0 0 1 0 -1 0 0 1 0 0 -1 0 1 -0.21 -0.72 -0.07 2 0 "
         result="color2"
         id="feColorMatrix2747" />
    </filter>
    <filter
       style="color-interpolation-filters:sRGB;"
       inkscape:label="Invert"
       id="filter2755"
       x="0"
       y="0"
       width="1"
       height="1">
      <feColorMatrix
         type="hueRotate"
         values="180"
         result="color1"
         id="feColorMatrix2751" />
      <feColorMatrix
         values="-1 0 0 0 1 0 -1 0 0 1 0 0 -1 0 1 -0.21 -0.72 -0.07 2 0 "
         result="color2"
         id="feColorMatrix2753" />
    </filter>
    <filter
       style="color-interpolation-filters:sRGB;"
       inkscape:label="Invert"
       id="filter2761"
       x="0"
       y="0"
       width="1"
       height="1">
      <feColorMatrix
         type="hueRotate"
         values="180"
         result="color1"
         id="feColorMatrix2757" />
      <feColorMatrix
         values="-1 0 0 0 1 0 -1 0 0 1 0 0 -1 0 1 -0.21 -0.72 -0.07 2 0 "
         result="color2"
         id="feColorMatrix2759" />
    </filter>
    <filter
       style="color-interpolation-filters:sRGB;"
       inkscape:label="Invert"
       id="filter2767"
       x="0"
       y="0"
       width="1"
       height="1">
      <feColorMatrix
         type="hueRotate"
         values="180"
         result="color1"
         id="feColorMatrix2763" />
      <feColorMatrix
         values="-1 0 0 0 1 0 -1 0 0 1 0 0 -1 0 1 -0.21 -0.72 -0.07 2 0 "
         result="color2"
         id="feColorMatrix2765" />
    </filter>
  </defs>
  <sodipodi:namedview
     id="base"
     pagecolor="#ffffff"
     bordercolor="#666666"
     borderopacity="1.0"
     gridtolerance="10000"
     guidetolerance="10"
     objecttolerance="10"
     inkscape:pageopacity="0.0"
     inkscape:pageshadow="2"
     inkscape:zoom="10.556063"
     inkscape:cx="36.945592"
     inkscape:cy="54.423699"
     inkscape:document-units="px"
     inkscape:current-layer="layer1"
     width="128px"
     height="128px"
     inkscape:window-width="1499"
     inkscape:window-height="1236"
     inkscape:window-x="4334"
     inkscape:window-y="96"
     showgrid="false"
     inkscape:document-rotation="0"
     inkscape:window-maximized="0"
     inkscape:showpageshadow="2"
     inkscape:pagecheckerboard="0"
     inkscape:deskcolor="#d1d1d1" />
  <metadata
     id="metadata2947">
    <rdf:RDF>
      <cc:Work
         rdf:about="">
        <dc:format>image/svg+xml</dc:format>
        <dc:type
           rdf:resource="http://purl.org/dc/dcmitype/StillImage" />
        <dc:title />
        <dc:date />
        <dc:creator>
          <cc:Agent>
            <dc:title />
          </cc:Agent>
        </dc:creator>
        <dc:rights>
          <cc:Agent>
            <dc:title />
          </cc:Agent>
        </dc:rights>
        <dc:publisher>
          <cc:Agent>
            <dc:title />
          </cc:Agent>
        </dc:publisher>
        <dc:identifier />
        <dc:source />
        <dc:relation />
        <dc:language />
        <dc:subject>
          <rdf:Bag />
        </dc:subject>
        <dc:coverage />
        <dc:description />
        <dc:contributor>
          <cc:Agent>
            <dc:title />
          </cc:Agent>
        </dc:contributor>
        <cc:license
           rdf:resource="" />
      </cc:Work>
      <cc:Work
         rdf:about="">
        <dc:format>image/svg+xml</dc:format>
        <dc:type
           rdf:resource="http://purl.org/dc/dcmitype/StillImage" />
      </cc:Work>
    </rdf:RDF>
  </metadata>
  <g
     inkscape:label="Layer 1"
     inkscape:groupmode="layer"
     id="layer1">
    <path
       d="m 28.296174,24.015016 c 0,1.449005 -0.761914,2.72003 -1.907547,3.433909 -0.619846,0.387276 -1.352429,0.610748 -2.13711,0.610748 -2.23364,0 -4.044653,-1.810988 -4.044653,-4.044657 0,-2.23366 1.811013,-4.044665 4.044653,-4.044665 0.784681,0 1.517264,0.223463 2.13711,0.610747 1.145633,0.713871 1.907547,1.984913 1.907547,3.433918 z"
       id="path1719"
       style="stroke-width:0.0505581;filter:url(#filter2767)" />
    <path
       d="m 15.342146,41.26954 c -0.05567,0.09562 -0.113149,0.189175 -0.174492,0.28112 -0.06521,0.09949 -0.133511,0.197165 -0.205163,0.29271 0.06108,-0.105674 0.126045,-0.208772 0.193573,-0.309901 0.0598,-0.08995 0.121913,-0.178101 0.186082,-0.263929 z"
       id="path1721"
       style="stroke-width:0.0505581;filter:url(#filter2761)" />
    <path
       d="m 15.342146,41.26954 c -0.05567,0.09562 -0.113149,0.189175 -0.174492,0.28112 -0.0052,-0.0052 -0.0077,-0.01289 -0.01289,-0.01804 0.0598,-0.08995 0.121912,-0.177851 0.186082,-0.263911 z"
       id="path1723"
       style="stroke-width:0.0505581;filter:url(#filter2755)" />
    <path
       d="m 15.342146,41.26954 c -0.05567,0.09562 -0.113149,0.189175 -0.174492,0.28112 -0.06521,0.09949 -0.133511,0.197165 -0.205163,0.29271 0.06108,-0.105674 0.126045,-0.208772 0.193573,-0.309901 0.0598,-0.08995 0.121913,-0.178101 0.186082,-0.263929 z"
       id="path1725"
       style="stroke-width:0.0505581;filter:url(#filter2749)" />
    <path
       d="m 44.474836,24.015016 v 14.156316 c 0,0.0077 0,0.01804 -5.58e-4,0.02578 -0.01289,3.338853 -2.724592,6.0417 -6.066487,6.0417 H 37.620583 C 34.641702,43.852545 32.340779,41.305925 32.340779,38.222365 V 25.749153 l 6.067012,-1.733664 -6.266195,-1.790257 c -0.814502,-3.606339 -4.037604,-6.299057 -7.890139,-6.299057 -4.467842,0 -8.08931,3.621468 -8.08931,8.089314 v 4.044665 c 0,2.233669 1.810979,4.044657 4.044657,4.044657 3.3505,0 6.066982,2.716499 6.066982,6.067011 v 6.724256 c 0,-1.243739 -0.37414,-2.400025 -1.016229,-3.362128 -1.087495,-1.630508 -2.943499,-2.704884 -5.050753,-2.704884 -1.990987,0 -3.758511,0.959079 -4.864709,2.440946 -0.06418,0.08583 -0.126303,0.173985 -0.186099,0.263938 -0.06779,0.101026 -0.13248,0.204132 -0.193565,0.309901 -0.957051,1.285193 -2.412113,2.178581 -4.080045,2.394956 h -0.787199 c -3.3418941,0 -6.0533241,-2.702847 -6.066469,-6.0417 -6.272e-4,-0.0077 -6.272e-4,-0.01804 -6.272e-4,-0.02578 V 9.8586822 C 4.0279542,6.5082048 6.7444609,3.7916973 10.094938,3.7916973 c 1.931345,0 3.652346,0.9024611 4.763115,2.3089902 2.806752,-1.4747794 6.002524,-2.3089902 9.393464,-2.3089902 11.168835,0 20.223319,9.0544837 20.223319,20.2233187 z"
       id="path1727"
       style="stroke-width:0.0505581;filter:url(#filter2743)" />
    <line
       fill="none"
       x1="26.273867"
       y1="45.030567"
       x2="26.273867"
       y2="44.895565"
       id="line1729"
       style="stroke-width:0.0505581;filter:url(#filter2737)" />
  </g>
</svg>
